<svg xmlns="http://www.w3.org/2000/svg" xmlns:xlink="http://www.w3.org/1999/xlink" width="511pt" height="665pt" viewBox="0.00 0.00 511.00 664.95">
<g id="graph0" class="graph" transform="scale(1 1) rotate(0) translate(4 660.95)">
<title>G</title>
<polygon fill="white" stroke="none" points="-4,4 -4,-660.95 507,-660.95 507,4 -4,4"/>
<g id="clust1" class="cluster">
<title>cluster_0</title>
<polygon fill="lightgrey" stroke="lightgrey" points="8,-8 8,-648.95 495,-648.95 495,-8 8,-8"/>
<text text-anchor="middle" x="251.5" y="-632.35" font-family="Times,serif" font-size="14.00">Processo Principal</text>
</g>
<!-- Start -->
<g id="node1" class="node">
<title>Start</title>
<polygon fill="white" stroke="white" points="338,-616.15 287.5,-598.15 338,-580.15 388.5,-598.15 338,-616.15"/>
<polyline fill="none" stroke="white" points="298.81,-602.17 298.81,-594.12"/>
<polyline fill="none" stroke="white" points="326.7,-584.17 349.3,-584.17"/>
<polyline fill="none" stroke="white" points="377.19,-594.12 377.19,-602.17"/>
<polyline fill="none" stroke="white" points="349.3,-612.12 326.7,-612.12"/>
<text text-anchor="middle" x="338" y="-593.95" font-family="Times,serif" font-size="14.00">Início</text>
</g>
<!-- Init -->
<g id="node2" class="node">
<title>Init</title>
<ellipse fill="white" stroke="white" cx="338" cy="-525.15" rx="110.52" ry="18"/>
<text text-anchor="middle" x="338" y="-520.95" font-family="Times,serif" font-size="14.00">Inicializar GPIOs e Serial</text>
</g>
<!-- Start&#45;&gt;Init -->
<g id="edge1" class="edge">
<title>Start-&gt;Init</title>
<path fill="none" stroke="black" d="M338,-579.96C338,-572.37 338,-563.25 338,-554.68"/>
<polygon fill="black" stroke="black" points="341.5,-554.69 338,-544.69 334.5,-554.69 341.5,-554.69"/>
</g>
<!-- ConfigTimer -->
<g id="node3" class="node">
<title>ConfigTimer</title>
<ellipse fill="white" stroke="white" cx="338" cy="-452.15" rx="90.42" ry="18"/>
<text text-anchor="middle" x="338" y="-447.95" font-family="Times,serif" font-size="14.00">Configurar Timer 3s</text>
</g>
<!-- Init&#45;&gt;ConfigTimer -->
<g id="edge2" class="edge">
<title>Init-&gt;ConfigTimer</title>
<path fill="none" stroke="black" d="M338,-506.96C338,-499.37 338,-490.25 338,-481.68"/>
<polygon fill="black" stroke="black" points="341.5,-481.69 338,-471.69 334.5,-481.69 341.5,-481.69"/>
</g>
<!-- Loop -->
<g id="node4" class="node">
<title>Loop</title>
<polygon fill="white" stroke="white" points="338,-397.15 240.84,-379.15 338,-361.15 435.16,-379.15 338,-397.15"/>
<text text-anchor="middle" x="338" y="-374.95" font-family="Times,serif" font-size="14.00">Loop Principal</text>
</g>
<!-- ConfigTimer&#45;&gt;Loop -->
<g id="edge3" class="edge">
<title>ConfigTimer-&gt;Loop</title>
<path fill="none" stroke="black" d="M338,-433.96C338,-426.37 338,-417.25 338,-408.68"/>
<polygon fill="black" stroke="black" points="341.5,-408.69 338,-398.69 334.5,-408.69 341.5,-408.69"/>
</g>
<!-- EstadoVerde -->
<g id="node5" class="node">
<title>EstadoVerde</title>
<ellipse fill="white" stroke="white" cx="126" cy="-290.35" rx="85.58" ry="18"/>
<text text-anchor="middle" x="126" y="-286.15" font-family="Times,serif" font-size="14.00">LED Verde Ligado</text>
</g>
<!-- Loop&#45;&gt;EstadoVerde -->
<g id="edge4" class="edge">
<title>Loop-&gt;EstadoVerde</title>
<path fill="none" stroke="black" d="M302.36,-367.4C282.02,-360.96 256.17,-352.28 233.7,-343.15 211.38,-334.07 187.15,-322.57 167.33,-312.71"/>
<polygon fill="black" stroke="black" points="168.97,-309.62 158.46,-308.26 165.83,-315.88 168.97,-309.62"/>
<text text-anchor="middle" x="283.85" y="-330.55" font-family="Times,serif" font-size="14.00">Timer Expira (3s)</text>
</g>
<!-- SerialMsg -->
<g id="node8" class="node">
<title>SerialMsg</title>
<ellipse fill="white" stroke="white" cx="338" cy="-290.35" rx="108.39" ry="18"/>
<text text-anchor="middle" x="338" y="-286.15" font-family="Times,serif" font-size="14.00">Imprimir Status na Serial</text>
</g>
<!-- Loop&#45;&gt;SerialMsg -->
<g id="edge8" class="edge">
<title>Loop-&gt;SerialMsg</title>
<path fill="none" stroke="black" d="M338,-361C338,-349.3 338,-333.54 338,-319.96"/>
<polygon fill="black" stroke="black" points="341.5,-320.27 338,-310.27 334.5,-320.27 341.5,-320.27"/>
<text text-anchor="middle" x="365.6" y="-330.55" font-family="Times,serif" font-size="14.00">A cada 1s</text>
</g>
<!-- EstadoAmarelo -->
<g id="node6" class="node">
<title>EstadoAmarelo</title>
<ellipse fill="white" stroke="white" cx="112" cy="-162.17" rx="95.78" ry="18"/>
<text text-anchor="middle" x="112" y="-157.97" font-family="Times,serif" font-size="14.00">LED Amarelo Ligado</text>
</g>
<!-- EstadoVerde&#45;&gt;EstadoAmarelo -->
<g id="edge5" class="edge">
<title>EstadoVerde-&gt;EstadoAmarelo</title>
<path fill="none" stroke="black" d="M113.96,-272.32C110.74,-266.83 107.7,-260.57 106.05,-254.35 100.64,-233.94 102.46,-210.11 105.46,-191.94"/>
<polygon fill="black" stroke="black" points="108.9,-192.59 107.31,-182.12 102.02,-191.3 108.9,-192.59"/>
<text text-anchor="middle" x="172.52" y="-241.75" font-family="Times,serif" font-size="14.00">Troca para AMARELO</text>
</g>
<!-- EstadoVermelho -->
<g id="node7" class="node">
<title>EstadoVermelho</title>
<ellipse fill="white" stroke="white" cx="180" cy="-34" rx="100.6" ry="18"/>
<text text-anchor="middle" x="180" y="-29.8" font-family="Times,serif" font-size="14.00">LED Vermelho Ligado</text>
</g>
<!-- EstadoAmarelo&#45;&gt;EstadoVermelho -->
<g id="edge6" class="edge">
<title>EstadoAmarelo-&gt;EstadoVermelho</title>
<path fill="none" stroke="black" d="M102.6,-143.87C93.39,-124.32 82.72,-92.32 97.5,-70 101.5,-63.96 106.78,-58.95 112.73,-54.81"/>
<polygon fill="black" stroke="black" points="114.45,-57.86 121.27,-49.76 110.88,-51.84 114.45,-57.86"/>
<text text-anchor="middle" x="168.25" y="-74.2" font-family="Times,serif" font-size="14.00">Troca para VERMELHO</text>
</g>
<!-- EstadoVermelho&#45;&gt;EstadoVerde -->
<g id="edge7" class="edge">
<title>EstadoVermelho-&gt;EstadoVerde</title>
<path fill="none" stroke="black" d="M219.84,-50.91C227.5,-55.85 234.52,-62.13 239,-70 249.14,-87.8 251.15,-237.86 239,-254.35 231.68,-264.28 221.56,-271.48 210.37,-276.68"/>
<polygon fill="black" stroke="black" points="209.22,-273.37 201.25,-280.35 211.83,-279.87 209.22,-273.37"/>
<text text-anchor="middle" x="302.57" y="-157.97" font-family="Times,serif" font-size="14.00">Troca para VERDE</text>
</g>
<!-- EndLoop -->
<g id="node9" class="node">
<title>EndLoop</title>
<polygon fill="white" stroke="white" points="487.37,-219.55 372.63,-219.55 372.63,-104.8 487.37,-104.8 487.37,-219.55"/>
<polyline fill="none" stroke="white" points="384.63,-219.55 372.63,-207.55"/>
<polyline fill="none" stroke="white" points="372.63,-116.8 384.63,-104.8"/>
<polyline fill="none" stroke="white" points="475.37,-104.8 487.37,-116.8"/>
<polyline fill="none" stroke="white" points="487.37,-207.55 475.37,-219.55"/>
<text text-anchor="middle" x="430" y="-157.97" font-family="Times,serif" font-size="14.00">Retornar ao Loop</text>
</g>
<!-- SerialMsg&#45;&gt;EndLoop -->
<g id="edge9" class="edge">
<title>SerialMsg-&gt;EndLoop</title>
<path fill="none" stroke="black" d="M350.6,-272.07C358.95,-260.62 370.47,-244.81 382.16,-228.78"/>
<polygon fill="black" stroke="black" points="384.7,-231.25 387.76,-221.1 379.04,-227.12 384.7,-231.25"/>
</g>
<!-- EndLoop&#45;&gt;Loop -->
<g id="edge10" class="edge">
<title>EndLoop-&gt;Loop</title>
<path fill="none" stroke="black" d="M456.47,-219.94C465.57,-248.07 470.12,-281.64 455,-308.35 440.01,-334.82 410.55,-352.31 384.94,-363.16"/>
<polygon fill="black" stroke="black" points="383.66,-359.91 375.66,-366.85 386.25,-366.41 383.66,-359.91"/>
</g>
</g>
</svg>