<svg xmlns="http://www.w3.org/2000/svg" xmlns:xlink="http://www.w3.org/1999/xlink" width="548pt" height="803pt" viewBox="0.00 0.00 548.00 802.81">
<g id="graph0" class="graph" transform="scale(1 1) rotate(0) translate(4 798.81)">
<title>G</title>
<polygon fill="white" stroke="none" points="-4,4 -4,-798.81 544,-798.81 544,4 -4,4"/>
<g id="clust1" class="cluster">
<title>cluster_0</title>
<polygon fill="lightgrey" stroke="lightgrey" points="8,-8 8,-786.81 532,-786.81 532,-8 8,-8"/>
<text text-anchor="middle" x="270" y="-770.21" font-family="Times,serif" font-size="14.00">Processo Principal</text>
</g>
<!-- Start -->
<g id="node1" class="node">
<title>Start</title>
<polygon fill="white" stroke="white" points="380,-754.01 329.5,-736.01 380,-718.01 430.5,-736.01 380,-754.01"/>
<polyline fill="none" stroke="white" points="340.81,-740.04 340.81,-731.98"/>
<polyline fill="none" stroke="white" points="368.7,-722.04 391.3,-722.04"/>
<polyline fill="none" stroke="white" points="419.19,-731.98 419.19,-740.04"/>
<polyline fill="none" stroke="white" points="391.3,-749.98 368.7,-749.98"/>
<text text-anchor="middle" x="380" y="-731.81" font-family="Times,serif" font-size="14.00">Início</text>
</g>
<!-- Init -->
<g id="node2" class="node">
<title>Init</title>
<ellipse fill="white" stroke="white" cx="380" cy="-663.01" rx="115.35" ry="18"/>
<text text-anchor="middle" x="380" y="-658.81" font-family="Times,serif" font-size="14.00">Inicializar GPIOs e Timers</text>
</g>
<!-- Start&#45;&gt;Init -->
<g id="edge1" class="edge">
<title>Start-&gt;Init</title>
<path fill="none" stroke="black" d="M380,-717.82C380,-710.23 380,-701.11 380,-692.55"/>
<polygon fill="black" stroke="black" points="383.5,-692.55 380,-682.55 376.5,-692.55 383.5,-692.55"/>
</g>
<!-- Loop -->
<g id="node3" class="node">
<title>Loop</title>
<polygon fill="white" stroke="white" points="380,-608.01 282.84,-590.01 380,-572.01 477.16,-590.01 380,-608.01"/>
<text text-anchor="middle" x="380" y="-585.81" font-family="Times,serif" font-size="14.00">Loop Principal</text>
</g>
<!-- Init&#45;&gt;Loop -->
<g id="edge2" class="edge">
<title>Init-&gt;Loop</title>
<path fill="none" stroke="black" d="M380,-644.82C380,-637.23 380,-628.11 380,-619.55"/>
<polygon fill="black" stroke="black" points="383.5,-619.55 380,-609.55 376.5,-619.55 383.5,-619.55"/>
</g>
<!-- Semaforo -->
<g id="node4" class="node">
<title>Semaforo</title>
<ellipse fill="white" stroke="white" cx="127" cy="-489.79" rx="110.55" ry="29.42"/>
<text text-anchor="middle" x="127" y="-493.99" font-family="Times,serif" font-size="14.00">Temporizador Periódico:</text>
<text text-anchor="middle" x="127" y="-477.19" font-family="Times,serif" font-size="14.00">Alternar LEDs</text>
</g>
<!-- Loop&#45;&gt;Semaforo -->
<g id="edge3" class="edge">
<title>Loop-&gt;Semaforo</title>
<path fill="none" stroke="black" d="M339.52,-579.03C315.84,-572.76 285.55,-563.98 259.37,-554.01 234.91,-544.69 208.76,-532.67 186.22,-521.61"/>
<polygon fill="black" stroke="black" points="188,-518.59 177.49,-517.29 184.89,-524.86 188,-518.59"/>
<text text-anchor="middle" x="317.68" y="-541.41" font-family="Times,serif" font-size="14.00">Timer Periódico (3s)</text>
</g>
<!-- BotaoPress -->
<g id="node7" class="node">
<title>BotaoPress</title>
<polygon fill="white" stroke="white" points="380,-507.79 255.52,-489.79 380,-471.79 504.48,-489.79 380,-507.79"/>
<text text-anchor="middle" x="380" y="-485.59" font-family="Times,serif" font-size="14.00">Botão Pressionado?</text>
</g>
<!-- Loop&#45;&gt;BotaoPress -->
<g id="edge6" class="edge">
<title>Loop-&gt;BotaoPress</title>
<path fill="none" stroke="black" d="M380,-571.9C380,-557.34 380,-536.14 380,-519.06"/>
<polygon fill="black" stroke="black" points="383.5,-519.55 380,-509.55 376.5,-519.55 383.5,-519.55"/>
<text text-anchor="middle" x="420.45" y="-541.41" font-family="Times,serif" font-size="14.00">Botão GPIO 5</text>
</g>
<!-- SerialMsg -->
<g id="node5" class="node">
<title>SerialMsg</title>
<ellipse fill="white" stroke="white" cx="157" cy="-312.75" rx="108.39" ry="18"/>
<text text-anchor="middle" x="157" y="-308.55" font-family="Times,serif" font-size="14.00">Imprimir Status na Serial</text>
</g>
<!-- Semaforo&#45;&gt;SerialMsg -->
<g id="edge4" class="edge">
<title>Semaforo-&gt;SerialMsg</title>
<path fill="none" stroke="black" d="M131.89,-460.28C137.48,-427.66 146.57,-374.59 152.15,-342.06"/>
<polygon fill="black" stroke="black" points="155.53,-343.02 153.77,-332.57 148.63,-341.83 155.53,-343.02"/>
</g>
<!-- EndLoop -->
<g id="node6" class="node">
<title>EndLoop</title>
<polygon fill="white" stroke="white" points="437.37,-130.75 322.63,-130.75 322.63,-16 437.37,-16 437.37,-130.75"/>
<polyline fill="none" stroke="white" points="334.63,-130.75 322.63,-118.75"/>
<polyline fill="none" stroke="white" points="322.63,-28 334.63,-16"/>
<polyline fill="none" stroke="white" points="425.37,-16 437.37,-28"/>
<polyline fill="none" stroke="white" points="437.37,-118.75 425.37,-130.75"/>
<text text-anchor="middle" x="380" y="-69.17" font-family="Times,serif" font-size="14.00">Retornar ao Loop</text>
</g>
<!-- SerialMsg&#45;&gt;EndLoop -->
<g id="edge5" class="edge">
<title>SerialMsg-&gt;EndLoop</title>
<path fill="none" stroke="black" d="M166.1,-294.42C181.61,-265.92 215.26,-208.27 254,-167.75 271.54,-149.4 293.01,-132.03 313.23,-117.37"/>
<polygon fill="black" stroke="black" points="315.07,-120.35 321.18,-111.7 311,-114.65 315.07,-120.35"/>
</g>
<!-- EndLoop&#45;&gt;Loop -->
<g id="edge11" class="edge">
<title>EndLoop-&gt;Loop</title>
<path fill="none" stroke="black" d="M437.75,-93.16C477.44,-110.1 523,-139.43 523,-184.75 523,-490.79 523,-490.79 523,-490.79 523,-536.18 473.46,-562.16 432.69,-575.86"/>
<polygon fill="black" stroke="black" points="431.67,-572.51 423.19,-578.87 433.78,-579.19 431.67,-572.51"/>
</g>
<!-- OneShot -->
<g id="node8" class="node">
<title>OneShot</title>
<ellipse fill="white" stroke="white" cx="380" cy="-378.16" rx="110.56" ry="29.42"/>
<text text-anchor="middle" x="380" y="-382.36" font-family="Times,serif" font-size="14.00">Temporizador One-Shot:</text>
<text text-anchor="middle" x="380" y="-365.56" font-family="Times,serif" font-size="14.00">Acionar LEDs</text>
</g>
<!-- BotaoPress&#45;&gt;OneShot -->
<g id="edge7" class="edge">
<title>BotaoPress-&gt;OneShot</title>
<path fill="none" stroke="black" d="M380,-471.66C380,-457.63 380,-437.22 380,-419.14"/>
<polygon fill="black" stroke="black" points="383.5,-419.19 380,-409.19 376.5,-419.19 383.5,-419.19"/>
<text text-anchor="middle" x="391.28" y="-429.78" font-family="Times,serif" font-size="14.00">Sim</text>
</g>
<!-- Debounce -->
<g id="node9" class="node">
<title>Debounce</title>
<ellipse fill="white" stroke="white" cx="380" cy="-258.75" rx="81.55" ry="18"/>
<text text-anchor="middle" x="380" y="-254.55" font-family="Times,serif" font-size="14.00">Aplicar Debounce</text>
</g>
<!-- OneShot&#45;&gt;Debounce -->
<g id="edge8" class="edge">
<title>OneShot-&gt;Debounce</title>
<path fill="none" stroke="black" d="M380,-348.44C380,-330.15 380,-306.55 380,-288.29"/>
<polygon fill="black" stroke="black" points="383.5,-288.42 380,-278.42 376.5,-288.42 383.5,-288.42"/>
</g>
<!-- EndSeq -->
<g id="node10" class="node">
<title>EndSeq</title>
<ellipse fill="white" stroke="white" cx="380" cy="-185.75" rx="117.24" ry="18"/>
<text text-anchor="middle" x="380" y="-181.55" font-family="Times,serif" font-size="14.00">Fim da Sequência de LEDs</text>
</g>
<!-- Debounce&#45;&gt;EndSeq -->
<g id="edge9" class="edge">
<title>Debounce-&gt;EndSeq</title>
<path fill="none" stroke="black" d="M380,-240.56C380,-232.97 380,-223.85 380,-215.28"/>
<polygon fill="black" stroke="black" points="383.5,-215.29 380,-205.29 376.5,-215.29 383.5,-215.29"/>
</g>
<!-- EndSeq&#45;&gt;EndLoop -->
<g id="edge10" class="edge">
<title>EndSeq-&gt;EndLoop</title>
<path fill="none" stroke="black" d="M380,-167.5C380,-160.43 380,-151.75 380,-142.56"/>
<polygon fill="black" stroke="black" points="383.5,-142.69 380,-132.69 376.5,-142.69 383.5,-142.69"/>
</g>
</g>
</svg>